<svg width="64" height="64" preserveAspectRatio="none" version="1.1" viewBox="0 0 64 64" xmlns="http://www.w3.org/2000/svg">
 <defs></defs>
 <g transform="matrix(1.6201 0 0 1.6201 -7.2037 -2.2944)" fill="none">
  <g fill="none" stroke-width=".61724">
   <path d="m6.4 5.6q-1.95 1.8-1.95 4.5v25.65q-0.05 0.6 0.6 0.6h4.45q0.6 0 0.6-0.6v-25.55q0-1 1.05-1h3.65q1 0 1 1v25.55q0 0.6 0.7 0.6h4.35q0.6 0 0.65-0.6v-25.65q-0.05-2.7-1.95-4.5-2-1.9-4.75-1.9h-3.65q-2.8 0-4.75 1.9m34.4 29.8q0.65-0.4 1.2-0.9 1.95-1.9 1.95-4.5v-9.25q-0.05-0.65-0.65-0.65h-7.2q-0.65 0-0.65 0.65v4.15q0 0.65 0.65 0.65h1.55q0.6 0 0.6 0.7v3.75q0 0.95-0.95 0.95-1.85 0-3.7 0-1.05 0-1.05-0.95v-19.8q0-1 1.05-1h3.7q0.95 0 0.95 1v3.8q-0.05 0.6 0.65 0.65h4.4q0.6-0.05 0.65-0.65v-3.9q0-2.65-1.95-4.5-2-1.9-4.7-1.9h-3.7q-2.75 0-4.7 1.9-2.05 1.85-2 4.5v19.9q-0.05 2.6 2 4.5 0.55 0.5 1.2 0.9 1.55 0.95 3.5 0.95h3.7q1.95 0 3.5-0.95z" fill="#ffffff"/>
  </g>
 </g>
</svg>
