<svg width="512" height="512" version="1.1" viewBox="0 0 512 512" xmlns="http://www.w3.org/2000/svg">
 <g>
  <path d="m255 9.9475c-127.52 0-231.38 103.86-231.38 231.38 0 127.52 103.86 231.38 231.38 231.38s231.38-103.86 231.38-231.38c0-127.52-103.86-231.38-231.38-231.38zm0 44.711c103.36 0 186.67 83.309 186.67 186.67 0 103.36-83.31 186.67-186.67 186.67s-186.67-83.309-186.67-186.67c-1e-6 -103.36 83.31-186.67 186.67-186.67z" fill="#000000" fill-rule="evenodd" stroke="#ffffff" stroke-width="8"/>
  <path transform="matrix(1.1178 0 0 1.1178 -30.033 -19.127)" d="m256 23.4-34.758 3.8066-28.465 14.229-24.844 21.562-25.361 30.938-14.256 33.604-10.26 32.271 12.398 12.279 2.6836 31.83-29.082 31.434 52.371 83.154 27.641-9.4238-2.5117 56.541 8.166 15.076 15.078 7.5391 20.73 56.541 1.2559 16.961 29.213 5.6543 29.213-5.6543 1.2559-16.961 20.73-56.541 15.078-7.5391 8.166-15.076-2.5117-56.541 27.641 9.4238 52.371-83.154-29.082-31.434 2.6836-31.83 12.398-12.279-10.26-32.271-14.256-33.604-25.361-30.938-24.844-21.562-28.465-14.229z" fill="#000000" stroke="#ffffff" stroke-width="3.5786"/>
  <g fill="#ffffff">
   <path transform="matrix(1.1178 0 0 1.1178 -30.033 -19.127)" d="m165.69 198.57-29.318 46.643 24.432 24.432 49.753-30.651 8.4402 7.9959 11.994-14.659 10.661-28.874-15.548 23.099zm180.61 0 29.318 46.643-24.432 24.432-49.753-30.651-8.4402 7.9959-11.994-14.659-10.661-28.874 15.548 23.099z"/>
   <path transform="matrix(1.1178 0 0 1.1178 -30.033 -19.127)" d="m225.22 298.4 3.7693 3.1411 10.052-13.821 10.994-6.2822 0.31411-52.771 2.827-2.827v-14.135h-1.8847l-5.654 5.654zm61.566 0-3.7693 3.1411-10.052-13.821-10.994-6.2822-0.31411-52.771-2.827-2.827v-14.135h1.8847l5.654 5.654z"/>
   <path transform="matrix(1.1178 0 0 1.1178 -30.033 -19.127)" d="m197.58 330.44v9.4233l10.366 41.777 15.706 27.956 4.3975 4.7117 0.62822-14.135 2.1988 3.4552 1.5706 8.7951 6.9104 9.4233 7.8528 5.3399 8.7951 2.1988v-45.232l-6.9104-5.0258-3.7693-5.654 0.94233 7.5386-10.994-10.994-3.1411-4.0834-0.31411 2.5129-7.5386-0.62822-11.936-11.308zm116.85 0v9.4233l-10.366 41.777-15.706 27.956-4.3975 4.7117-0.62822-14.135-2.1988 3.4552-1.5706 8.7951-6.9104 9.4233-7.8528 5.3399-8.7951 2.1988v-45.232l6.9104-5.0258 3.7693-5.654-0.94233 7.5386 10.994-10.994 3.1411-4.0834 0.31411 2.5129 7.5386-0.62822 11.936-11.308z"/>
  </g>
 </g>
</svg>
